<svg version="1.1" id="Layer_1" xmlns="http://www.w3.org/2000/svg" xmlns:xlink="http://www.w3.org/1999/xlink" x="0px" y="0px"
	 width="100%" viewBox="0 0 1024 1024" enable-background="new 0 0 1024 1024" xml:space="preserve">
<path fill="#FFFFFF" opacity="1.000000" stroke="none" 
	d="
M758.765930,569.864868 
	C773.367126,524.293396 787.442078,478.960754 803.867249,434.419464 
	C815.804932,402.047241 828.295410,369.889404 846.690063,340.457214 
	C853.969116,328.810486 862.174927,317.884308 873.768311,310.083496 
	C887.130432,301.092529 902.279114,301.151031 915.376587,310.488007 
	C929.426758,320.504242 938.766052,334.484802 946.931824,349.337311 
	C948.668823,352.496887 948.461121,355.704346 945.111755,357.600922 
	C941.896240,359.421814 939.285156,357.682281 937.489014,354.926056 
	C932.396790,347.111877 927.651611,339.069031 921.603455,331.907410 
	C918.473694,328.201385 915.182007,324.680725 911.347412,321.702454 
	C899.316467,312.358063 887.591919,312.699432 876.056335,322.752533 
	C866.637329,330.961090 859.577576,341.045563 853.333130,351.736115 
	C838.062195,377.879913 826.820374,405.850464 816.333557,434.137909 
	C793.114929,496.768280 774.332703,560.871460 753.378723,624.254028 
	C737.748657,671.532593 722.193481,718.856995 699.963440,763.598633 
	C691.341858,780.951111 681.734131,797.698853 667.526123,811.301697 
	C649.995056,828.085876 629.802185,828.310608 611.940491,811.829407 
	C597.588196,798.586304 588.071289,781.944458 579.403442,764.809692 
	C564.710754,735.764771 553.367737,705.320190 542.534607,674.681885 
	C521.491211,615.167175 503.670349,554.597778 483.665802,494.744019 
	C468.932983,450.663483 454.118744,406.594849 432.911133,365.046539 
	C426.918091,353.305511 420.249207,341.963959 411.734985,331.809235 
	C408.943542,328.479980 405.984009,325.325073 402.630249,322.560272 
	C389.867249,312.038757 377.177979,312.485809 365.028076,323.744141 
	C353.981262,333.980347 346.101288,346.511078 339.043060,359.598663 
	C322.700562,389.901489 310.669708,422.034882 299.208008,454.393463 
	C274.688141,523.617920 254.392746,594.233276 230.385361,663.626526 
	C218.183014,698.897339 205.475739,733.979858 188.374222,767.254517 
	C180.052444,783.446289 170.739182,798.990112 157.270645,811.652405 
	C140.051819,827.840454 120.429550,828.241760 102.814194,812.460999 
	C92.254921,803.001343 84.393463,791.462280 77.471458,779.218811 
	C75.584908,775.882019 74.661743,772.338989 78.549179,770.015686 
	C82.454666,767.681396 85.148170,770.235291 87.165543,773.452026 
	C93.099152,782.913208 98.949387,792.413879 106.880592,800.432068 
	C123.090141,816.819275 136.679062,816.745117 152.629913,800.018860 
	C165.818069,786.189575 174.640305,769.534912 182.771225,752.529297 
	C204.529602,707.022278 220.011368,659.136902 235.676178,611.338928 
	C255.430832,551.061707 273.368805,490.181854 295.469604,430.684113 
	C307.080170,399.427338 319.408295,368.472900 337.168030,340.042450 
	C342.743591,331.116882 348.999786,322.698669 356.874695,315.601288 
	C374.516174,299.701630 393.181183,299.389984 411.110229,314.859772 
	C414.122803,317.459076 416.896637,320.390686 419.474915,323.428345 
	C432.981903,339.342255 442.534363,357.668304 451.119843,376.498993 
	C474.732483,428.289368 491.734039,482.499512 509.180206,536.531982 
	C525.549683,587.229858 541.052429,638.218506 559.435486,688.241211 
	C571.507019,721.089478 584.146729,753.736206 603.269043,783.349976 
	C608.429138,791.341064 614.071594,798.993042 621.575500,805.027039 
	C634.731201,815.605957 646.120972,815.202087 658.654602,803.733459 
	C670.916382,792.513672 679.281372,778.484497 686.834229,763.965271 
	C706.818115,725.549011 720.931763,684.762146 734.691833,643.862000 
	C742.920288,619.404297 750.687744,594.791443 758.765930,569.864868 
z"/>
<path fill="#FFFFFF" opacity="1.000000" stroke="none" 
	d="
M81.442909,658.467773 
	C79.660995,655.234924 77.976173,652.356628 76.533806,649.361572 
	C75.169205,646.528076 76.044975,643.999878 78.617500,642.434021 
	C81.065285,640.944214 83.563271,641.667297 85.350327,643.785828 
	C86.950081,645.682312 88.285446,647.820190 89.595840,649.939148 
	C94.866219,658.461914 100.467049,666.745483 107.595421,673.848816 
	C122.609467,688.809998 136.438583,688.826172 151.405777,673.935730 
	C161.688034,663.706299 169.093307,651.435303 175.865341,638.771790 
	C190.835602,610.777954 202.172440,581.225525 212.836426,551.410339 
	C234.712158,490.248474 253.140839,427.952240 273.564972,366.312103 
	C286.978394,325.830231 300.765167,285.478729 318.788116,246.747833 
	C327.661987,227.678162 337.410828,209.084152 351.734039,193.358185 
	C356.238953,188.412048 361.203369,184.007904 367.119385,180.728653 
	C379.691254,173.760040 391.996063,174.263519 403.966980,182.034531 
	C418.239838,191.299896 427.523590,204.963898 435.843750,219.294281 
	C452.219025,247.498596 464.117554,277.724609 475.298706,308.248016 
	C495.005646,362.045776 511.566589,416.884521 529.218567,471.362518 
	C544.873108,519.676086 560.387329,568.049866 581.190491,614.487000 
	C589.510498,633.058960 598.580566,651.255859 611.414307,667.263855 
	C615.074280,671.829041 619.097107,676.055176 623.905762,679.438049 
	C634.829163,687.122742 645.085754,687.029907 655.622498,678.839355 
	C668.008484,669.211365 676.071594,656.119812 683.524658,642.681335 
	C702.027954,609.318787 714.950500,573.584717 727.490784,537.722107 
	C748.762817,476.888458 766.886230,415.022736 787.481995,353.966003 
	C800.315613,315.920197 813.539429,278.017151 830.974670,241.760147 
	C838.859985,225.362488 847.622314,209.477371 859.475098,195.493454 
	C862.731384,191.651703 866.341858,188.233139 870.283691,185.144714 
	C885.918884,172.894577 902.205933,172.645889 917.897522,184.847961 
	C930.499817,194.647736 939.180603,207.703079 946.769409,221.513702 
	C948.504944,224.672134 948.901855,228.174881 945.106323,230.194336 
	C941.589539,232.065491 939.086304,229.918640 937.183228,227.058945 
	C933.584045,221.650528 930.145996,216.131271 926.431641,210.804001 
	C922.126892,204.629929 917.125244,199.037994 911.267761,194.273743 
	C900.334290,185.380829 889.709412,185.166306 878.386353,193.413086 
	C871.119385,198.705719 865.659302,205.631516 860.661682,212.929932 
	C845.116455,235.632126 834.210571,260.680298 824.172058,286.126068 
	C800.502686,346.123718 782.108276,407.910126 762.275208,469.208527 
	C746.180237,518.953552 730.257385,568.769226 709.114441,616.688110 
	C700.292175,636.683228 690.555176,656.210999 676.910156,673.494812 
	C672.975159,678.479126 668.621155,683.062317 663.677917,687.064270 
	C647.177917,700.423096 628.629211,699.627930 612.162415,684.658020 
	C599.128845,672.809265 590.224365,657.925598 582.091553,642.565918 
	C567.632812,615.259216 556.506165,586.521790 546.062622,557.510010 
	C524.227600,496.853210 505.988434,435.013489 485.722198,373.840668 
	C471.001434,329.406616 456.201202,284.980133 435.500549,242.849030 
	C427.629852,226.830139 419.028320,211.182556 406.078308,198.485519 
	C404.416016,196.855698 402.686981,195.269608 400.842560,193.853882 
	C389.492279,185.141739 378.800507,185.283218 367.613708,194.223053 
	C357.671722,202.168121 350.607452,212.468262 344.193359,223.233780 
	C327.310608,251.569916 315.435272,282.167938 304.127472,312.992798 
	C281.870239,373.665588 263.695129,435.689789 243.415512,497.017853 
	C229.506119,539.081604 215.545914,581.128906 197.159531,621.519470 
	C188.170761,641.265747 178.301437,660.531494 164.094101,677.210388 
	C159.954865,682.069702 155.290039,686.329834 149.996902,689.845886 
	C135.967636,699.165039 121.280365,698.774048 107.625427,688.857971 
	C96.613739,680.861328 88.888222,670.024353 81.442909,658.467773 
z"/>
<path fill="#FFFFFF" opacity="1.000000" stroke="none" 
	d="
M428.112183,270.930786 
	C445.052765,296.171051 456.642242,323.644226 467.428040,351.471436 
	C492.420959,415.952789 511.817322,482.318573 533.281738,547.987305 
	C547.718567,592.155579 562.240906,636.298523 581.344543,678.739136 
	C589.903748,697.754211 599.327576,716.333008 612.763672,732.534424 
	C615.861206,736.269348 619.224854,739.729858 623.152832,742.593323 
	C635.246704,751.409119 646.321533,750.830017 657.594055,740.913330 
	C670.229492,729.797607 678.680969,715.643005 686.416687,701.023376 
	C701.496948,672.523499 712.883911,642.456909 723.648560,612.141479 
	C748.282166,542.768616 768.677734,472.001709 792.607544,402.397339 
	C803.984497,369.305573 815.932922,336.428741 831.175415,304.873535 
	C839.307617,288.038300 848.386780,271.739319 860.882690,257.630280 
	C863.866821,254.261032 867.137756,251.173950 870.765747,248.468033 
	C887.129333,236.263428 904.065430,236.696060 919.599609,249.946457 
	C930.916748,259.599884 939.246887,271.632111 946.425537,284.520691 
	C948.272339,287.836548 949.179504,291.515717 945.247314,293.710785 
	C941.368408,295.876068 938.621521,293.214020 936.648560,290.015717 
	C931.394287,281.498322 925.990173,273.096771 919.309387,265.592712 
	C915.742676,261.586548 911.795776,258.031036 907.224915,255.203644 
	C898.012939,249.505295 888.913330,249.824738 880.066956,255.955627 
	C869.698242,263.141632 862.462769,273.136383 855.984436,283.684784 
	C838.888977,311.520111 826.853088,341.696503 815.588074,372.193970 
	C793.425598,432.193817 775.236816,493.512848 755.350647,554.268555 
	C741.156006,597.635681 726.808105,640.956787 708.102051,682.653870 
	C699.295105,702.285034 689.685059,721.523621 675.982849,738.353577 
	C671.661194,743.661743 666.940918,748.623230 661.308411,752.574829 
	C645.947632,763.351440 630.453552,762.895142 615.692139,751.368469 
	C606.764648,744.397400 599.930725,735.593994 593.820496,726.203613 
	C576.068359,698.921448 564.039062,668.914246 552.534485,638.686279 
	C535.940125,595.084839 522.038574,550.567627 507.808502,506.164856 
	C490.223602,451.293610 473.323029,396.184753 451.681274,342.711151 
	C442.420563,319.829224 432.355591,297.312988 418.330841,276.844757 
	C413.141510,269.271210 407.385834,262.133331 399.777344,256.736877 
	C389.120697,249.178452 379.511780,249.184280 368.915192,256.935120 
	C358.456055,264.585449 351.343414,275.097626 344.795776,285.965851 
	C329.512329,311.334320 318.371002,338.631897 308.021606,366.270966 
	C284.011627,430.391846 264.754547,496.092499 243.333893,561.074280 
	C228.993088,604.578613 214.491821,648.035339 195.099121,689.636169 
	C186.213943,708.696472 176.470825,727.295837 162.141296,743.020996 
	C158.881622,746.598145 155.313797,749.862488 151.350967,752.653931 
	C136.401108,763.184753 120.966866,763.012207 106.595428,751.802246 
	C93.741432,741.775879 84.695663,728.618713 77.019707,714.439697 
	C75.430664,711.504395 75.141220,708.413330 78.294769,706.487793 
	C81.533905,704.510132 84.422699,705.838257 86.445724,708.851318 
	C92.200531,717.422241 97.534920,726.263367 104.345711,734.114624 
	C121.159996,753.497437 137.753647,753.662292 154.683990,734.220337 
	C168.182480,718.719421 177.515854,700.651672 185.972260,682.115479 
	C207.240707,635.495422 222.923416,586.814148 238.722702,538.188354 
	C257.347046,480.867767 274.593414,423.087585 295.603577,366.563690 
	C307.219055,335.314423 319.516724,304.332520 337.389313,275.958862 
	C343.715637,265.915466 350.793182,256.470062 360.232758,249.024658 
	C376.178192,236.447815 393.205566,236.548279 409.060638,249.406723 
	C416.508301,255.446808 422.517181,262.767609 428.112183,270.930786 
z"/>
</svg>